HIERARCHY
ROOT Hips
{
OFFSET -0.1795 -22.3333 2.8219000000000003
	CHANNELS 6 Xposition Yposition Zposition Zrotation Yrotation Xrotation 
	JOINT LeftUpLeg
	{
OFFSET 6.952 -9.140600000000001 -0.6815
		CHANNELS 3 Zrotation Yrotation Xrotation
		JOINT LeftLeg
		{
OFFSET 3.4277 -37.5199 -0.4496
			CHANNELS 3 Zrotation Yrotation Xrotation
			JOINT LeftFoot
			{
OFFSET -1.3596000000000001 -39.7961 -4.3693
				CHANNELS 3 Zrotation Yrotation Xrotation
				JOINT LeftToe
				{
OFFSET 2.6358 -5.5791 11.9288
					CHANNELS 3 Zrotation Yrotation Xrotation
					End Site
					{
OFFSET 0.0 0.0 0.0
					}
				}
			}
		}
	}
	JOINT RightUpLeg
	{
OFFSET -6.7669999999999995 -9.052200000000001 -0.432
		CHANNELS 3 Zrotation Yrotation Xrotation
		JOINT RightLeg
		{
OFFSET -3.8289999999999997 -38.2569 -0.885
			CHANNELS 3 Zrotation Yrotation Xrotation
			JOINT RightFoot
			{
OFFSET 1.5774 -39.8415 -4.2312
				CHANNELS 3 Zrotation Yrotation Xrotation
				JOINT RightToe
				{
OFFSET -2.5372 -4.8144 12.3348
					CHANNELS 3 Zrotation Yrotation Xrotation
					End Site
					{
OFFSET 0.0 0.0 0.0
					}
				}
			}
		}
	}
	JOINT Spine
	{
OFFSET -0.2533 10.8963 -2.6696
		CHANNELS 3 Zrotation Yrotation Xrotation
		JOINT Spine1
		{
OFFSET 0.5487 13.517999999999999 0.1092
			CHANNELS 3 Zrotation Yrotation Xrotation
			JOINT Spine2
			{
OFFSET 0.1457 5.292199999999999 2.5425
				CHANNELS 3 Zrotation Yrotation Xrotation
				JOINT Neck
				{
OFFSET -0.2778 21.387 -4.2857
					CHANNELS 3 Zrotation Yrotation Xrotation
					JOINT Head
					{
OFFSET 0.5152 6.497 5.1349
						CHANNELS 3 Zrotation Yrotation Xrotation
						End Site
						{
OFFSET 0.0 0.0 0.0
						}
					}
				}
				JOINT LeftShoulder
				{
OFFSET 7.8845 12.1749 -3.4090000000000003
					CHANNELS 3 Zrotation Yrotation Xrotation
					JOINT LeftArm
					{
OFFSET 9.0977 3.0469 -0.8867999999999999
						CHANNELS 3 Zrotation Yrotation Xrotation
						JOINT LeftForeArm
						{
OFFSET 25.9612 -1.2772000000000001 -2.7456
							CHANNELS 3 Zrotation Yrotation Xrotation
							JOINT LeftHand
							{
OFFSET 24.9234 0.8986 -0.1171
								CHANNELS 3 Zrotation Yrotation Xrotation
								End Site
								{
OFFSET 0.0 0.0 0.0
								}
							}
						}
					}
				}
				JOINT RightShoulder
				{
OFFSET -8.1759 11.8833 -3.8614999999999995
					CHANNELS 3 Zrotation Yrotation Xrotation
					JOINT RightArm
					{
OFFSET -9.6012 3.2550999999999997 -0.9143
						CHANNELS 3 Zrotation Yrotation Xrotation
						JOINT RightForeArm
						{
OFFSET -25.374200000000002 -1.3329 -2.1401
							CHANNELS 3 Zrotation Yrotation Xrotation
							JOINT RightHand
							{
OFFSET -25.5298 0.7772 -0.5559
								CHANNELS 3 Zrotation Yrotation Xrotation
								End Site
								{
OFFSET 0.0 0.0 0.0
								}
							}
						}
					}
				}
			}
		}
	}
}
MOTION
Frames: 11
Frame Time: 0.050000
-13.8298 138.8855 9.1776 -11.345813 4.744598 14.615321 12.284864 -0.367651 -26.972366 -5.973573 0.983223 37.905878 -1.918203 7.237183 29.490163 0.000000 0.000000 0.000000 -13.659261 -3.098567 -72.534376 18.553264 -30.923732 113.749286 -19.005808 -38.410951 9.383523 0.000000 0.000000 0.000000 1.086499 -1.793256 25.396327 8.791743 -1.368914 -23.358185 2.900551 4.594954 22.702740 -0.583611 3.044753 -32.013482 0.000000 0.000000 0.000000 -29.946162 -9.937695 1.800565 -33.539185 -20.677866 0.402457 -6.070341 -61.888643 6.190195 0.000000 0.000000 0.000000 17.414947 25.359946 14.640017 34.075042 26.170363 1.686946 -13.578066 35.112123 -2.288324 0.000000 0.000000 0.000000
-13.9316 142.5885 13.0859 -7.325844 4.915155 10.333046 9.995873 -0.927418 -33.184920 -9.852602 4.090532 74.826243 3.927943 12.858797 22.094169 0.000000 0.000000 0.000000 -9.316248 -0.247368 -64.829960 14.413883 -27.625581 122.143960 -14.106732 -31.906634 3.231371 0.000000 0.000000 0.000000 -1.819596 -1.001965 26.045932 8.808766 -1.466295 -22.787218 1.657130 1.601227 23.734356 1.817288 1.228055 -26.904900 0.000000 0.000000 0.000000 -35.151154 -5.419515 -0.768366 -33.254512 -14.031640 -1.401804 -5.956605 -51.739542 5.149488 0.000000 0.000000 0.000000 21.174623 20.496293 11.985464 41.099362 16.426260 -0.665381 -2.658791 27.112624 0.531538 0.000000 0.000000 0.000000
-13.8467 143.4812 16.6789 -5.086017 4.955178 7.737904 9.739639 -1.213822 -39.261183 -11.676750 9.093240 102.478322 7.048992 16.344790 19.582463 0.000000 0.000000 0.000000 -7.578044 0.745303 -57.978387 14.571067 -26.759801 119.314225 -10.856798 -26.461677 -4.591816 0.000000 0.000000 0.000000 -4.903729 -0.217746 27.070671 10.360818 -1.488260 -26.410637 1.231885 -0.546485 26.369581 0.189652 1.787691 -26.564276 0.000000 0.000000 0.000000 -37.825767 0.981346 -4.887346 -29.712848 -10.049117 -2.579692 -3.161153 -59.901128 4.764372 0.000000 0.000000 0.000000 24.809736 15.030751 8.743743 41.107717 3.449703 -4.882914 -3.220090 22.109277 0.285215 0.000000 0.000000 0.000000
-13.567000000000002 141.1667 19.78 -2.505218 3.249922 6.385437 10.527938 -0.754200 -41.857440 -12.119262 11.725346 104.954534 10.010179 20.295659 12.623089 0.000000 0.000000 0.000000 -8.658972 0.711657 -55.510974 20.489158 -29.066986 105.408096 -12.215950 -28.749743 0.908116 0.000000 0.000000 0.000000 -6.017761 0.209433 26.295436 10.572941 -1.501876 -26.992831 -0.082199 -0.115244 25.356553 -1.394329 2.408079 -20.742395 0.000000 0.000000 0.000000 -33.261197 6.440093 -8.002703 -29.125532 -3.565692 -3.722480 -9.889252 -75.134103 11.208984 0.000000 0.000000 0.000000 21.953283 6.993799 3.454908 41.467122 -9.935703 -8.801174 -0.134558 27.031225 1.064519 0.000000 0.000000 0.000000
-13.103000000000002 135.2054 22.1571 -1.206352 0.321837 3.963265 11.432372 0.125413 -41.250640 -15.041306 13.884006 88.354115 12.603843 24.821276 5.362571 0.000000 0.000000 0.000000 -9.857251 0.936064 -51.310587 25.974816 -25.363221 85.473263 -10.757611 -24.461599 12.965920 0.000000 0.000000 0.000000 -6.470302 0.481134 24.446647 10.413768 -1.545083 -26.634123 -0.269836 1.958340 23.875264 -1.625419 2.366209 -13.551850 0.000000 0.000000 0.000000 -27.774173 8.161341 -8.093556 -25.842232 0.245315 -3.912725 72.246847 -88.085539 -66.520951 0.000000 0.000000 0.000000 17.068606 1.117065 0.233772 37.682209 -19.929555 -10.552571 11.513128 36.396670 5.155827 0.000000 0.000000 0.000000
-12.5764 125.7865 24.3559 0.636708 -2.959255 4.248293 8.963986 -0.214539 -37.497371 -13.452113 8.701306 60.319917 11.392146 22.654803 6.245211 0.000000 0.000000 0.000000 -8.450876 2.053801 -45.038030 23.591453 -14.114232 62.834715 -10.310200 -23.354750 22.027410 0.000000 0.000000 0.000000 -7.778533 0.829684 19.330644 14.666834 -2.745451 -24.705872 -5.536697 3.826841 23.423841 -2.514437 3.286991 -19.811112 0.000000 0.000000 0.000000 -18.934634 15.804945 -10.610364 -20.633421 2.386974 -3.259658 165.066730 -80.036820 -158.589902 0.000000 0.000000 0.000000 9.568350 -1.851548 -0.977974 36.492934 -24.613505 -11.171927 31.346094 47.217425 15.895050 0.000000 0.000000 0.000000
-12.106 111.326 26.8152 2.450023 -8.746783 1.403127 8.285133 0.188094 -30.115286 -10.029050 5.267028 40.150586 6.898848 15.371653 20.457352 0.000000 0.000000 0.000000 -6.192168 2.976239 -36.588600 19.409990 -6.512493 46.561459 -14.205500 -27.735678 34.941182 0.000000 0.000000 0.000000 -6.427778 0.629725 16.524470 8.393018 -1.408900 -24.564803 -3.208807 3.743492 27.594229 -2.768565 2.909252 -19.983260 0.000000 0.000000 0.000000 -9.761555 16.945870 -8.251168 -21.106201 2.051608 -3.678703 157.077205 -74.194382 -143.671180 0.000000 0.000000 0.000000 0.227056 -2.146161 -0.772885 39.455321 -22.991820 -12.194081 51.793555 52.750714 28.480058 0.000000 0.000000 0.000000
-11.8146 94.2085 29.6068 5.223953 -11.045758 -1.369640 5.112706 -0.498452 -27.259719 -6.054348 3.903888 41.722602 -1.153515 1.403457 10.648072 0.000000 0.000000 0.000000 -8.455712 2.074942 -30.973451 16.151380 -4.184915 50.722487 -7.689427 -20.032026 11.137097 0.000000 0.000000 0.000000 -5.898493 0.650382 17.840141 5.716134 -0.503443 -28.264089 -1.626786 4.989559 29.128104 -6.846486 5.409293 -25.771977 0.000000 0.000000 0.000000 -12.270886 18.041051 -9.273316 -16.765234 0.334711 -2.871155 175.588224 -70.713884 -167.572934 0.000000 0.000000 0.000000 2.711918 -1.704236 -0.797274 38.505712 -24.642284 -12.601006 77.769490 62.271387 53.994045 0.000000 0.000000 0.000000
-11.955300000000001 77.09129999999999 31.487900000000003 5.995721 -15.421482 -5.959239 5.665314 0.270498 -30.952403 -3.316908 7.424463 68.891523 6.172645 7.272843 -23.693754 0.000000 0.000000 0.000000 -10.196258 2.452754 -34.402519 18.683578 -5.080712 72.507622 -8.777971 -22.705808 -25.013134 0.000000 0.000000 0.000000 -5.224088 1.142206 24.976905 8.881250 -1.254441 -28.500780 -4.455946 8.192672 27.410689 -7.705535 6.252784 -28.621511 0.000000 0.000000 0.000000 -18.944361 11.679327 -7.180801 -13.032455 6.245686 -2.605589 -177.828623 -77.701237 -178.994750 0.000000 0.000000 0.000000 20.925144 2.745666 0.304527 29.981075 -12.165783 -7.125704 101.837645 79.999271 95.561827 0.000000 0.000000 0.000000
-12.808 66.8364 31.9614 4.919287 -15.801464 -9.926109 6.231233 1.430830 -42.778646 0.218662 5.915070 96.116560 7.676660 10.567985 -21.670188 0.000000 0.000000 0.000000 -12.579195 3.297769 -47.276184 26.137808 -16.948440 91.321149 -11.209310 -30.980299 -10.177182 0.000000 0.000000 0.000000 -3.084440 1.412206 34.577238 7.986044 -1.242417 -28.767397 -3.655663 2.207033 25.192827 -7.007049 4.850596 -32.445489 0.000000 0.000000 0.000000 -26.840728 5.621691 -3.195242 -16.211746 5.278772 -3.504185 -125.315072 -82.790470 123.569820 0.000000 0.000000 0.000000 25.134208 9.276608 2.037346 31.610268 -3.616126 -5.039225 102.437117 78.373481 92.805978 0.000000 0.000000 0.000000
-14.4733 61.037600000000005 32.1494 3.473167 -18.029282 -9.602756 10.026250 5.387641 -53.057371 -0.676022 6.962864 112.008917 6.149688 9.941782 -9.988691 0.000000 0.000000 0.000000 -16.753836 4.132219 -62.440346 26.687385 -25.032025 103.507325 -6.676919 -16.552199 0.419154 0.000000 0.000000 0.000000 -3.970166 2.152543 36.570329 9.638280 -2.181163 -24.380697 -2.493244 -0.882976 20.304707 -6.421321 3.838632 -37.194881 0.000000 0.000000 0.000000 -25.766903 -2.463039 2.830173 -26.815487 2.314630 -5.341361 -58.792600 -77.259893 54.319318 0.000000 0.000000 0.000000 24.066927 15.651133 4.262189 38.810056 2.590002 -3.494833 56.504165 71.535609 42.618094 0.000000 0.000000 0.000000
